<svg width="1275" height="357" viewBox="0 0 1275 357" fill="none" xmlns="http://www.w3.org/2000/svg">
<path d="M829.288 6.60254H444.727V215.94H829.288V6.60254Z" fill="white" fill-opacity="0.5"/>
<path opacity="0.3" d="M548.945 215.925L757.804 6.60254H710.99L502.131 215.925H548.945Z" fill="white"/>
<path opacity="0.3" d="M801.157 6.60254H777.742L568.883 215.925H592.297L801.157 6.60254Z" fill="white"/>
<path d="M835.862 222.528H438.154V0H835.862V222.528ZM451.3 209.352H822.716V13.176H451.3V209.352Z" fill="#242424"/>
<path d="M1267.43 6.60254H882.865V215.94H1267.43V6.60254Z" fill="white" fill-opacity="0.5"/>
<path opacity="0.3" d="M987.097 215.925L1195.96 6.60254H1149.14L940.283 215.925H987.097Z" fill="white"/>
<path opacity="0.3" d="M1239.31 6.60254H1215.89L1007.04 215.925H1030.45L1239.31 6.60254Z" fill="white"/>
<path d="M1274.01 222.528H876.307V0H1274.01V222.528ZM889.453 209.352H1260.87V13.176H889.453V209.352Z" fill="#242424"/>
<path d="M391.134 6.60254H6.57227V215.94H391.134V6.60254Z" fill="white" fill-opacity="0.5"/>
<path opacity="0.3" d="M110.805 215.925L319.665 6.60254H272.836L63.9766 215.925H110.805Z" fill="white"/>
<path opacity="0.3" d="M363.002 6.60254H339.588L130.729 215.925H154.143L363.002 6.60254Z" fill="white"/>
<path d="M397.708 222.528H0V0H397.708V222.528ZM13.1459 209.352H384.562V13.176H13.1459V209.352Z" fill="#242424"/>
<path opacity="0.2" d="M629 78.4863H623V209.486H629V78.4863Z" fill="#424242"/>
<path opacity="0.2" d="M651 201.486H601V209.486H651V201.486Z" fill="#4F4F4F"/>
<path opacity="0.2" d="M651 208.486H601V209.486H651V208.486Z" fill="#424242"/>
<path opacity="0.2" d="M650.828 187.421H601.385V199.382H650.828V187.421Z" fill="#4F4F4F"/>
<path opacity="0.2" d="M650.828 194.39H601.385V199.382H650.828V194.39Z" fill="#424242"/>
<path opacity="0.2" d="M650.828 173.674H601.385V185.635H650.828V173.674Z" fill="#4F4F4F"/>
<path opacity="0.2" d="M650.828 180.643H601.385V185.635H650.828V180.643Z" fill="#424242"/>
<path opacity="0.2" d="M650.828 159.927H601.385V171.888H650.828V159.927Z" fill="#4F4F4F"/>
<path opacity="0.2" d="M650.828 166.896H601.385V171.888H650.828V166.896Z" fill="#424242"/>
<path opacity="0.2" d="M650.828 146.18H601.385V158.141H650.828V146.18Z" fill="#4F4F4F"/>
<path opacity="0.2" d="M650.828 153.163H601.385V158.155H650.828V153.163Z" fill="#424242"/>
<path opacity="0.2" d="M723.349 135.654L696.677 127.017C696.413 126.929 696.137 126.884 695.859 126.885H556.322C556.044 126.884 555.768 126.929 555.504 127.017L528.833 135.654C528.232 135.851 527.721 136.256 527.391 136.796C527.061 137.336 526.934 137.976 527.032 138.602C527.131 139.228 527.449 139.798 527.928 140.21C528.408 140.622 529.019 140.849 529.651 140.851C529.929 140.849 530.204 140.805 530.469 140.72L556.761 132.214H695.406L721.698 140.72C721.962 140.807 722.238 140.852 722.516 140.851C723.147 140.846 723.755 140.616 724.232 140.203C724.71 139.79 725.025 139.22 725.121 138.595C725.218 137.97 725.09 137.331 724.759 136.793C724.429 136.254 723.919 135.85 723.319 135.654H723.349Z" fill="#BFBFBF"/>
<path d="M655.997 78.8945H649.789V273.182H655.997V78.8945Z" fill="#424242"/>
<path d="M719.507 268.087H586.295V278.262H719.507V268.087Z" fill="white"/>
<path d="M719.507 274.543H586.295V278.262H719.507V274.543Z" fill="#C9C9C9"/>
<path d="M721.903 353.16H583.9V109.726C583.916 98.7504 588.273 88.2287 596.016 80.4677C603.759 72.7067 614.257 68.3397 625.208 68.3242H680.61C691.56 68.3397 702.056 72.7071 709.797 80.4686C717.538 88.23 721.892 98.7518 721.903 109.726V353.16ZM594.519 342.502H711.284V109.726C711.284 101.572 708.053 93.7525 702.3 87.9868C696.548 82.2212 688.746 78.9821 680.61 78.9821H625.208C617.073 78.9821 609.271 82.2212 603.518 87.9868C597.766 93.7525 594.534 101.572 594.534 109.726L594.519 342.502Z" fill="white"/>
<path d="M660.263 303.691H645.525V353.16H660.263V303.691Z" fill="#BFBFBF"/>
<path d="M678.755 303.692H627.062C626.473 303.694 625.889 303.579 625.344 303.354C624.799 303.129 624.304 302.798 623.887 302.38C623.47 301.962 623.14 301.466 622.916 300.92C622.691 300.374 622.576 299.788 622.578 299.198V299.198C622.576 298.607 622.691 298.022 622.916 297.475C623.14 296.929 623.47 296.433 623.887 296.015C624.304 295.598 624.799 295.266 625.344 295.041C625.889 294.816 626.473 294.701 627.062 294.703H678.755C679.944 294.703 681.085 295.177 681.926 296.02C682.767 296.862 683.239 298.006 683.239 299.198C683.239 300.39 682.767 301.533 681.926 302.376C681.085 303.219 679.944 303.692 678.755 303.692Z" fill="#4F4F4F"/>
<path d="M677.615 256.126H628.172V268.087H677.615V256.126Z" fill="#4F4F4F"/>
<path d="M677.615 263.095H628.172V268.087H677.615V263.095Z" fill="#424242"/>
<path d="M677.615 242.395H628.172V254.355H677.615V242.395Z" fill="#4F4F4F"/>
<path d="M677.615 249.362H628.172V254.355H677.615V249.362Z" fill="#424242"/>
<path d="M677.615 228.646H628.172V240.607H677.615V228.646Z" fill="#4F4F4F"/>
<path d="M677.615 235.615H628.172V240.607H677.615V235.615Z" fill="#424242"/>
<path d="M677.615 214.9H628.172V226.861H677.615V214.9Z" fill="#4F4F4F"/>
<path d="M677.615 221.869H628.172V226.861H677.615V221.869Z" fill="#424242"/>
<path d="M677.615 201.153H628.172V213.114H677.615V201.153Z" fill="#4F4F4F"/>
<path d="M677.615 208.122H628.172V213.114H677.615V208.122Z" fill="#424242"/>
<path d="M677.615 187.421H628.172V199.382H677.615V187.421Z" fill="#4F4F4F"/>
<path d="M677.615 194.39H628.172V199.382H677.615V194.39Z" fill="#424242"/>
<path d="M677.615 173.674H628.172V185.635H677.615V173.674Z" fill="#4F4F4F"/>
<path d="M677.615 180.643H628.172V185.635H677.615V180.643Z" fill="#424242"/>
<path d="M677.615 159.927H628.172V171.888H677.615V159.927Z" fill="#4F4F4F"/>
<path d="M677.615 166.896H628.172V171.888H677.615V166.896Z" fill="#424242"/>
<path d="M677.615 146.18H628.172V158.141H677.615V146.18Z" fill="#4F4F4F"/>
<path d="M677.615 153.163H628.172V158.155H677.615V153.163Z" fill="#424242"/>
<path d="M750.151 135.654L723.465 127.017C723.201 126.929 722.925 126.884 722.647 126.885H583.154C582.877 126.886 582.601 126.93 582.336 127.017L555.665 135.654C555.064 135.851 554.553 136.256 554.223 136.796C553.893 137.336 553.766 137.976 553.865 138.602C553.963 139.228 554.281 139.798 554.76 140.21C555.24 140.622 555.851 140.849 556.483 140.851C556.761 140.849 557.036 140.805 557.301 140.72L583.593 132.214H722.253L748.545 140.72C748.808 140.807 749.085 140.852 749.363 140.851C749.995 140.849 750.605 140.622 751.085 140.21C751.565 139.798 751.882 139.228 751.981 138.602C752.079 137.976 751.952 137.336 751.622 136.796C751.292 136.256 750.781 135.851 750.181 135.654H750.151Z" fill="#BFBFBF"/>
<path d="M614.925 327.54H533.449V335.533H614.925V327.54Z" fill="#FCF2E0"/>
<path d="M614.925 332.796H533.449V335.519H614.925V332.796Z" fill="#F0E6D5"/>
<path d="M558.894 309.899H549.312V353.161H558.894V309.899Z" fill="#383838"/>
<path d="M558.894 331.537H549.312V353.16H558.894V331.537Z" fill="#222222"/>
<path d="M546.99 315.346H537.408V347.715H546.99V315.346Z" fill="#383838"/>
<path d="M546.99 331.537H537.408V347.714H546.99V331.537Z" fill="#222222"/>
<path d="M589.479 353.16H599.061V309.899H589.479V353.16Z" fill="#383838"/>
<path d="M589.479 353.16H599.061V331.537H589.479V353.16Z" fill="#222222"/>
<path d="M601.383 347.715H610.965V315.346H601.383V347.715Z" fill="#383838"/>
<path d="M601.383 347.715H610.965V331.538H601.383V347.715Z" fill="#222222"/>
<path d="M564.255 327.54H562.473V335.533H564.255V327.54Z" fill="#F0E6D5"/>
<path d="M567.847 327.54H566.051V335.533H567.847V327.54Z" fill="#F0E6D5"/>
<path d="M571.425 327.54H569.629V335.533H571.425V327.54Z" fill="#F0E6D5"/>
<path d="M575.005 327.54H573.209V335.533H575.005V327.54Z" fill="#F0E6D5"/>
<path d="M578.584 327.54H576.787V335.533H578.584V327.54Z" fill="#F0E6D5"/>
<path d="M582.162 327.54H580.365V335.533H582.162V327.54Z" fill="#F0E6D5"/>
<path d="M585.74 327.54H583.943V335.533H585.74V327.54Z" fill="#F0E6D5"/>
<path opacity="0.2" d="M304.825 178.695H56.6445V187.875H304.825V178.695Z" fill="#9C9C9C"/>
<path opacity="0.2" d="M304.825 183.292H56.6445V187.889H304.825V183.292Z" fill="#7D7D7D"/>
<path opacity="0.2" d="M89.919 160.791H79.709V206.878H89.919V160.791Z" fill="#3D3D3D"/>
<path opacity="0.2" d="M89.919 183.834H79.709V206.877H89.919V183.834Z" fill="#303030"/>
<path opacity="0.2" d="M77.2256 166.588H67.0156V201.08H77.2256V166.588Z" fill="#3D3D3D"/>
<path opacity="0.2" d="M77.2256 183.834H67.0156V201.08H77.2256V183.834Z" fill="#303030"/>
<path opacity="0.2" d="M263.942 206.863H274.152V160.777H263.942V206.863Z" fill="#3D3D3D"/>
<path opacity="0.2" d="M263.942 206.877H274.152V183.834H263.942V206.877Z" fill="#303030"/>
<path opacity="0.2" d="M276.649 201.065H286.859V166.574H276.649V201.065Z" fill="#3D3D3D"/>
<path opacity="0.2" d="M276.649 201.065H286.859V183.82H276.649V201.065Z" fill="#303030"/>
<path opacity="0.2" d="M263.942 268.966H274.152V222.879H263.942V268.966Z" fill="#3D3D3D"/>
<path opacity="0.2" d="M263.942 268.966H274.152V245.922H263.942V268.966Z" fill="#303030"/>
<path opacity="0.2" d="M263.942 331.039H274.152V284.952H263.942V331.039Z" fill="#3D3D3D"/>
<path opacity="0.2" d="M263.942 331.039H274.152V307.996H263.942V331.039Z" fill="#303030"/>
<path d="M331.614 178.695H83.4336V187.875H331.614V178.695Z" fill="#9C9C9C"/>
<path d="M331.614 183.292H83.4336V187.889H331.614V183.292Z" fill="#7D7D7D"/>
<path d="M116.706 160.791H106.496V206.878H116.706V160.791Z" fill="#3D3D3D"/>
<path d="M116.706 183.834H106.496V206.877H116.706V183.834Z" fill="#303030"/>
<path d="M104.015 166.588H93.8047V201.08H104.015V166.588Z" fill="#3D3D3D"/>
<path d="M104.015 183.834H93.8047V201.08H104.015V183.834Z" fill="#303030"/>
<path d="M290.729 206.863H300.939V160.777H290.729V206.863Z" fill="#3D3D3D"/>
<path d="M290.729 206.877H300.939V183.834H290.729V206.877Z" fill="#303030"/>
<path d="M303.438 201.065H313.648V166.574H303.438V201.065Z" fill="#3D3D3D"/>
<path d="M303.438 201.065H313.648V183.82H303.438V201.065Z" fill="#303030"/>
<path d="M331.614 240.783H83.4336V249.962H331.614V240.783Z" fill="#9C9C9C"/>
<path d="M331.614 245.381H83.4336V249.978H331.614V245.381Z" fill="#7D7D7D"/>
<path d="M116.706 222.864H106.496V268.951H116.706V222.864Z" fill="#3D3D3D"/>
<path d="M116.706 245.908H106.496V268.952H116.706V245.908Z" fill="#303030"/>
<path d="M104.015 228.676H93.8047V263.168H104.015V228.676Z" fill="#3D3D3D"/>
<path d="M104.015 245.908H93.8047V263.154H104.015V245.908Z" fill="#303030"/>
<path d="M290.729 268.966H300.939V222.879H290.729V268.966Z" fill="#3D3D3D"/>
<path d="M290.729 268.966H300.939V245.922H290.729V268.966Z" fill="#303030"/>
<path d="M303.438 263.153H313.648V228.661H303.438V263.153Z" fill="#3D3D3D"/>
<path d="M303.438 263.168H313.648V245.922H303.438V263.168Z" fill="#303030"/>
<path d="M331.614 302.872H83.4336V312.051H331.614V302.872Z" fill="#9C9C9C"/>
<path d="M331.614 307.454H83.4336V312.051H331.614V307.454Z" fill="#7D7D7D"/>
<path d="M116.706 284.952H106.496V331.039H116.706V284.952Z" fill="#3D3D3D"/>
<path d="M116.706 307.996H106.496V331.039H116.706V307.996Z" fill="#303030"/>
<path d="M104.015 290.75H93.8047V325.242H104.015V290.75Z" fill="#3D3D3D"/>
<path d="M104.015 307.996H93.8047V325.242H104.015V307.996Z" fill="#303030"/>
<path d="M290.729 331.039H300.939V284.952H290.729V331.039Z" fill="#3D3D3D"/>
<path d="M290.729 331.039H300.939V307.996H290.729V331.039Z" fill="#303030"/>
<path d="M303.438 325.242H313.648V290.75H303.438V325.242Z" fill="#3D3D3D"/>
<path d="M303.438 325.242H313.648V307.996H303.438V325.242Z" fill="#303030"/>
<path d="M148.506 138.67H130.715V353.161H148.506V138.67Z" fill="white"/>
<path d="M148.506 138.67H143.32V353.161H148.506V138.67Z" fill="#DBDBDB"/>
<path d="M276.723 138.67H258.932V353.161H276.723V138.67Z" fill="white"/>
<path d="M276.722 138.67H271.537V353.161H276.722V138.67Z" fill="#DBDBDB"/>
<path d="M172.358 326.647H144.708C140.901 326.633 137.225 325.251 134.347 322.753C131.469 320.255 129.579 316.807 129.02 313.032L124.01 278.408C123.686 276.153 123.849 273.854 124.488 271.668C125.127 269.481 126.228 267.458 127.716 265.735C129.203 264.012 131.043 262.63 133.11 261.682C135.178 260.734 137.424 260.242 139.698 260.24H177.368C179.641 260.242 181.888 260.734 183.955 261.682C186.022 262.63 187.862 264.012 189.35 265.735C190.837 267.458 191.938 269.481 192.578 271.668C193.217 273.854 193.38 276.153 193.055 278.408L188.06 313.032C187.495 316.807 185.602 320.254 182.722 322.751C179.842 325.248 176.166 326.63 172.358 326.647V326.647ZM139.698 269.01C138.68 269.012 137.674 269.233 136.749 269.658C135.823 270.084 135 270.703 134.334 271.475C133.668 272.246 133.175 273.152 132.888 274.131C132.601 275.11 132.528 276.139 132.672 277.149L137.667 311.758C137.924 313.449 138.774 314.993 140.065 316.111C141.355 317.23 143.001 317.852 144.708 317.863H172.358C174.062 317.851 175.707 317.229 176.995 316.11C178.283 314.991 179.13 313.448 179.384 311.758L184.379 277.135C184.526 276.126 184.454 275.098 184.169 274.12C183.884 273.141 183.392 272.236 182.727 271.465C182.062 270.694 181.239 270.076 180.314 269.652C179.39 269.229 178.385 269.009 177.368 269.01H139.698Z" fill="#333333"/>
<path d="M192.369 342.824C194.955 337.146 196.078 330.908 195.633 324.682C195.189 318.456 193.191 312.441 189.824 307.19C186.457 301.939 181.828 297.62 176.362 294.628C170.896 291.637 164.768 290.069 158.54 290.069C152.312 290.069 146.184 291.637 140.718 294.628C135.252 297.62 130.623 301.939 127.256 307.19C123.889 312.441 121.891 318.456 121.446 324.682C121.002 330.908 122.124 337.146 124.711 342.824C126.136 345.889 128.406 348.483 131.253 350.298C134.099 352.114 137.404 353.076 140.778 353.072H176.214C179.602 353.091 182.925 352.136 185.789 350.32C188.652 348.503 190.936 345.902 192.369 342.824V342.824Z" fill="#454545"/>
<path d="M195.685 325.783C195.444 320.158 193.935 314.66 191.271 309.702C188.607 304.745 184.858 300.456 180.304 297.159C175.75 293.861 170.511 291.64 164.978 290.662C159.446 289.683 153.764 289.974 148.359 291.511C153.511 292.979 158.287 295.544 162.359 299.032C166.431 302.519 169.704 306.846 171.955 311.718C174.206 316.59 175.381 321.891 175.4 327.259C175.419 332.628 174.282 337.937 172.066 342.824C170.645 345.915 168.369 348.532 165.508 350.364C162.647 352.197 159.321 353.167 155.926 353.16H176.243C179.627 353.155 182.937 352.179 185.785 350.347C188.632 348.515 190.896 345.905 192.311 342.824C194.761 337.49 195.917 331.651 195.685 325.783V325.783Z" fill="#363636"/>
<g style="mix-blend-mode:multiply" opacity="0.7">
<path d="M179.325 334.656C180.912 331.168 181.6 327.336 181.326 323.512C181.051 319.689 179.824 315.995 177.755 312.771C175.686 309.546 172.843 306.894 169.486 305.057C166.128 303.22 162.365 302.258 158.54 302.258C154.715 302.258 150.952 303.22 147.594 305.057C144.237 306.894 141.394 309.546 139.325 312.771C137.256 315.995 136.028 319.689 135.754 323.512C135.48 327.336 136.168 331.168 137.755 334.656C138.618 336.559 140.01 338.172 141.763 339.304C143.517 340.436 145.558 341.038 147.643 341.039H169.407C171.497 341.042 173.544 340.442 175.303 339.31C177.062 338.178 178.458 336.562 179.325 334.656Z" fill="#454545"/>
</g>
<path d="M238.482 335.08H219.639C217.043 335.071 214.535 334.129 212.571 332.426C210.607 330.724 209.317 328.373 208.933 325.799L205.529 302.199C205.307 300.661 205.418 299.093 205.853 297.601C206.289 296.11 207.039 294.729 208.052 293.554C209.066 292.378 210.32 291.434 211.73 290.786C213.139 290.138 214.671 289.802 216.221 289.799H241.885C243.436 289.797 244.968 290.13 246.379 290.776C247.79 291.421 249.045 292.364 250.059 293.539C251.074 294.714 251.824 296.095 252.258 297.586C252.693 299.078 252.802 300.647 252.577 302.184L249.174 325.784C248.796 328.359 247.51 330.714 245.548 332.42C243.586 334.125 241.079 335.069 238.482 335.08ZM216.221 295.801C215.527 295.803 214.842 295.953 214.211 296.243C213.58 296.533 213.018 296.955 212.564 297.481C212.11 298.007 211.774 298.625 211.578 299.292C211.382 299.959 211.332 300.661 211.43 301.35L214.848 324.935C215.016 326.089 215.593 327.143 216.472 327.907C217.352 328.67 218.476 329.091 219.639 329.093H238.482C239.644 329.088 240.767 328.666 241.646 327.903C242.524 327.14 243.102 326.087 243.273 324.935L246.676 301.335C246.779 300.646 246.732 299.942 246.539 299.273C246.345 298.603 246.009 297.983 245.554 297.456C245.099 296.929 244.535 296.507 243.902 296.219C243.269 295.931 242.581 295.783 241.885 295.787L216.221 295.801Z" fill="#333333"/>
<path d="M252.124 346.119C253.893 342.247 254.662 337.992 254.362 333.744C254.061 329.497 252.701 325.393 250.406 321.81C248.11 318.227 244.953 315.279 241.225 313.237C237.497 311.196 233.316 310.126 229.068 310.126C224.82 310.126 220.639 311.196 216.911 313.237C213.183 315.279 210.026 318.227 207.73 321.81C205.435 325.393 204.075 329.497 203.774 333.744C203.474 337.992 204.243 342.247 206.011 346.119C206.979 348.215 208.528 349.99 210.472 351.23C212.417 352.471 214.676 353.125 216.981 353.117H241.14C243.447 353.125 245.708 352.47 247.655 351.229C249.601 349.989 251.153 348.216 252.124 346.119V346.119Z" fill="#454545"/>
<path d="M254.389 334.494C254.221 330.661 253.19 326.915 251.372 323.537C249.555 320.16 246.998 317.239 243.894 314.992C240.79 312.746 237.219 311.233 233.449 310.566C229.679 309.9 225.807 310.097 222.123 311.143C227.244 312.616 231.775 315.662 235.079 319.85C238.383 324.039 240.294 329.16 240.542 334.494C240.717 338.494 239.941 342.478 238.278 346.118C237.312 348.223 235.764 350.006 233.817 351.255C231.869 352.503 229.605 353.164 227.294 353.16H241.141C243.452 353.164 245.716 352.503 247.664 351.255C249.611 350.006 251.16 348.223 252.125 346.118C253.788 342.478 254.564 338.494 254.389 334.494Z" fill="#363636"/>
<g style="mix-blend-mode:multiply" opacity="0.7">
<path d="M243.23 340.541C244.258 338.311 244.734 335.865 244.618 333.411C244.514 331.113 243.905 328.866 242.833 326.831C241.762 324.796 240.255 323.024 238.42 321.641C236.585 320.259 234.468 319.3 232.22 318.833C229.972 318.366 227.65 318.404 225.418 318.942C223.186 319.481 221.101 320.508 219.311 321.949C217.522 323.389 216.072 325.209 215.066 327.277C214.06 329.346 213.523 331.611 213.494 333.912C213.464 336.212 213.942 338.491 214.893 340.585C215.494 341.869 216.448 342.956 217.643 343.715C218.839 344.475 220.226 344.877 221.641 344.874H236.482C237.903 344.879 239.296 344.473 240.493 343.704C241.69 342.935 242.64 341.837 243.23 340.541V340.541Z" fill="#454545"/>
</g>
<path d="M305.203 326.399C305.203 326.593 305.146 326.782 305.038 326.944C304.931 327.105 304.778 327.231 304.599 327.305C304.42 327.379 304.224 327.399 304.034 327.361C303.844 327.323 303.67 327.23 303.533 327.092C303.396 326.955 303.303 326.78 303.265 326.59C303.227 326.4 303.247 326.203 303.321 326.023C303.395 325.844 303.52 325.691 303.681 325.583C303.842 325.475 304.031 325.418 304.225 325.418C304.353 325.418 304.481 325.443 304.599 325.493C304.718 325.542 304.826 325.614 304.917 325.705C305.008 325.796 305.08 325.904 305.129 326.023C305.178 326.142 305.203 326.27 305.203 326.399Z" fill="#9BEDFF"/>
<path d="M306.374 336.076C306.374 336.192 306.339 336.305 306.275 336.401C306.211 336.497 306.12 336.573 306.013 336.617C305.906 336.661 305.789 336.673 305.675 336.65C305.562 336.628 305.458 336.572 305.376 336.49C305.294 336.408 305.239 336.304 305.216 336.19C305.194 336.076 305.205 335.959 305.25 335.852C305.294 335.745 305.369 335.653 305.465 335.589C305.561 335.525 305.674 335.49 305.789 335.49C305.944 335.49 306.093 335.552 306.203 335.662C306.312 335.772 306.374 335.92 306.374 336.076V336.076Z" fill="#9BEDFF"/>
<path d="M305.205 347.07C305.217 347.141 305.214 347.215 305.195 347.285C305.176 347.355 305.142 347.42 305.095 347.475C305.049 347.531 304.991 347.576 304.925 347.606C304.859 347.637 304.788 347.653 304.715 347.653C304.643 347.653 304.571 347.637 304.506 347.606C304.44 347.576 304.382 347.531 304.335 347.475C304.289 347.42 304.255 347.355 304.236 347.285C304.217 347.215 304.214 347.141 304.226 347.07C304.246 346.954 304.306 346.85 304.396 346.774C304.485 346.699 304.598 346.657 304.715 346.657C304.832 346.657 304.946 346.699 305.035 346.774C305.125 346.85 305.185 346.954 305.205 347.07V347.07Z" fill="#9BEDFF"/>
<path d="M306.709 342.693C306.709 342.739 306.691 342.784 306.658 342.816C306.625 342.849 306.58 342.868 306.534 342.868C306.512 342.868 306.49 342.863 306.469 342.854C306.449 342.845 306.43 342.832 306.415 342.816C306.4 342.799 306.389 342.78 306.381 342.759C306.374 342.737 306.372 342.715 306.374 342.693C306.374 342.649 306.39 342.606 306.42 342.574C306.449 342.541 306.49 342.521 306.534 342.518C306.58 342.518 306.625 342.536 306.658 342.569C306.691 342.602 306.709 342.646 306.709 342.693V342.693Z" fill="#9BEDFF"/>
<path d="M41.6957 304.175H26.5195V350.671H41.6957V304.175Z" fill="#81C5D4"/>
<path d="M25 306.619H43.1998V349.997C43.1998 350.824 42.872 351.618 42.2885 352.202C41.7051 352.787 40.9137 353.116 40.0886 353.116H28.1112C27.2861 353.116 26.4947 352.787 25.9113 352.202C25.3278 351.618 25 350.824 25 349.997V306.619V306.619Z" fill="#9BEDFF"/>
<g style="mix-blend-mode:multiply">
<path d="M28.1252 352.312H40.1025C40.716 352.312 41.3045 352.068 41.7396 351.635C42.1747 351.202 42.4211 350.613 42.425 349.998V321.846H25.8027V349.998C25.8066 350.613 26.053 351.202 26.4881 351.635C26.9232 352.068 27.5117 352.312 28.1252 352.312V352.312Z" fill="#9BEDFF"/>
</g>
<path d="M30.4337 292.551H37.883C39.3086 292.551 40.6758 293.119 41.6839 294.129C42.6919 295.139 43.2582 296.51 43.2582 297.939V305.903H25V297.909C25.0038 297.199 25.1476 296.497 25.4231 295.843C25.6986 295.189 26.1004 294.596 26.6053 294.098C27.1103 293.6 27.7084 293.207 28.3654 292.941C29.0225 292.676 29.7253 292.543 30.4337 292.551Z" fill="#1442B8"/>
<path d="M37.8967 292.551H32.5215C33.9471 292.551 35.3143 293.118 36.3223 294.129C37.3304 295.139 37.8967 296.509 37.8967 297.938V305.902H43.2135V297.909C43.2059 296.495 42.6442 295.141 41.6496 294.139C40.655 293.137 39.3071 292.566 37.8967 292.551Z" fill="#002278"/>
<path d="M36.8749 324.744C36.8749 324.837 36.838 324.926 36.7723 324.992C36.7065 325.058 36.6174 325.095 36.5244 325.095C36.4314 325.095 36.3422 325.058 36.2765 324.992C36.2108 324.926 36.1738 324.837 36.1738 324.744C36.1738 324.651 36.2108 324.561 36.2765 324.495C36.3422 324.43 36.4314 324.393 36.5244 324.393C36.6174 324.393 36.7065 324.43 36.7723 324.495C36.838 324.561 36.8749 324.651 36.8749 324.744Z" fill="#9BEDFF"/>
<path d="M34.7852 331.215C35.1562 331.215 35.4571 330.914 35.4571 330.542C35.4571 330.17 35.1562 329.868 34.7852 329.868C34.4141 329.868 34.1133 330.17 34.1133 330.542C34.1133 330.914 34.4141 331.215 34.7852 331.215Z" fill="#9BEDFF"/>
<path d="M37.4456 338.931C37.9538 338.931 38.3658 338.518 38.3658 338.008C38.3658 337.499 37.9538 337.086 37.4456 337.086C36.9374 337.086 36.5254 337.499 36.5254 338.008C36.5254 338.518 36.9374 338.931 37.4456 338.931Z" fill="#9BEDFF"/>
<path d="M36.8743 342.502C36.8743 342.595 36.8374 342.685 36.7717 342.75C36.7059 342.816 36.6167 342.853 36.5238 342.853C36.4784 342.853 36.4335 342.844 36.3917 342.826C36.35 342.809 36.3123 342.782 36.2809 342.75C36.2495 342.717 36.2251 342.678 36.2091 342.635C36.1931 342.593 36.1858 342.547 36.1878 342.502C36.1878 342.413 36.2232 342.327 36.2862 342.264C36.3492 342.201 36.4347 342.165 36.5238 342.165C36.5691 342.163 36.6144 342.171 36.6568 342.187C36.6993 342.203 36.7381 342.227 36.7708 342.259C36.8036 342.29 36.8296 342.328 36.8474 342.37C36.8652 342.412 36.8744 342.457 36.8743 342.502V342.502Z" fill="#9BEDFF"/>
<path d="M37.8976 348.065C37.8976 348.197 37.8453 348.324 37.7521 348.417C37.659 348.51 37.5327 348.563 37.4009 348.563C37.2692 348.563 37.1429 348.51 37.0498 348.417C36.9566 348.324 36.9043 348.197 36.9043 348.065C36.9043 347.933 36.9566 347.807 37.0498 347.713C37.1429 347.62 37.2692 347.567 37.4009 347.567C37.4662 347.567 37.5307 347.58 37.591 347.605C37.6513 347.63 37.706 347.667 37.7521 347.713C37.7982 347.759 37.8348 347.814 37.8598 347.875C37.8847 347.935 37.8976 348 37.8976 348.065Z" fill="#9BEDFF"/>
<path d="M39.5922 329.868C39.6971 329.868 39.7821 329.783 39.7821 329.678C39.7821 329.573 39.6971 329.487 39.5922 329.487C39.4874 329.487 39.4023 329.573 39.4023 329.678C39.4023 329.783 39.4874 329.868 39.5922 329.868Z" fill="#9BEDFF"/>
<path d="M41.1542 323.47C41.1542 323.568 41.1157 323.661 41.0472 323.729C40.9787 323.798 40.8859 323.836 40.789 323.836C40.6922 323.836 40.5993 323.798 40.5308 323.729C40.4623 323.661 40.4238 323.568 40.4238 323.47C40.4238 323.373 40.4623 323.28 40.5308 323.212C40.5993 323.143 40.6922 323.104 40.789 323.104C40.8859 323.104 40.9787 323.143 41.0472 323.212C41.1157 323.28 41.1542 323.373 41.1542 323.47Z" fill="#9BEDFF"/>
<path opacity="0.1" d="M37.5038 306.619V349.997C37.4999 350.823 37.1709 351.614 36.5883 352.198C36.0056 352.782 35.2165 353.112 34.3926 353.116H40.1037C40.9289 353.116 41.7202 352.787 42.3037 352.202C42.8872 351.618 43.2149 350.824 43.2149 349.997V306.619H37.5038Z" fill="black"/>
<g clip-path="url(#clip0)">
<path d="M28 296.486H29.2559C29.6583 296.486 29.8595 296.664 29.8595 297.019V297.951C29.8595 298.308 29.6583 298.487 29.2559 298.487H28.6767V299.559H28V296.486ZM29.1747 297.859V297.114C29.1747 297.034 29.1327 296.994 29.0502 296.994H28.6767V297.979H29.0502C29.1327 297.979 29.1747 297.94 29.1747 297.859Z" fill="white"/>
<path d="M30.7731 296.486H31.4159C31.8174 296.486 32.0186 296.664 32.0195 297.019V299.023C32.0195 299.381 31.8183 299.559 31.4159 299.559H30.7731C30.3671 299.559 30.1641 299.381 30.1641 299.023V297.019C30.1641 296.664 30.3671 296.486 30.7731 296.486ZM31.3347 298.932V297.114C31.3347 297.034 31.2927 296.994 31.2102 296.994H30.9761C30.8894 296.994 30.8407 297.034 30.8407 297.114V298.932C30.8407 299.012 30.884 299.052 30.9761 299.052H31.2061C31.2927 299.052 31.3347 299.012 31.3347 298.932Z" fill="white"/>
<path d="M35.0833 296.486H35.7599L35.1726 299.559H34.3606L34.0141 297.549L33.6744 299.559H32.8543L32.2656 296.486H32.9748L33.2617 298.782L33.665 296.486H34.3606L34.7666 298.782L35.0833 296.486Z" fill="white"/>
<path d="M36.7121 299.052H37.6906V299.559H36.0273V296.486H37.6513V296.994H36.7121V297.743H37.512V298.251H36.7121V299.052Z" fill="white"/>
<path d="M38.6689 298.409V299.559H37.9922V296.486H39.2481C39.6496 296.486 39.8508 296.664 39.8517 297.019V297.878C39.8672 297.998 39.8354 298.12 39.763 298.217C39.6907 298.314 39.5836 298.378 39.4646 298.397L40.0059 299.566H39.2684L38.7879 298.416L38.6689 298.409ZM38.6689 296.994V297.922H39.0383C39.0722 297.925 39.106 297.915 39.133 297.895C39.1441 297.883 39.1524 297.869 39.1576 297.854C39.1627 297.838 39.1645 297.822 39.1628 297.806V297.114C39.1628 297.034 39.1209 296.994 39.0383 296.994H38.6689Z" fill="#D3D3D3"/>
<path d="M31.1363 299.897H31.6086C31.6086 300.862 31.6018 301.344 31.5978 302.309C31.4097 302.28 31.3163 302.264 31.1282 302.23C31.1282 301.846 31.1282 301.654 31.1282 301.274C30.9577 301.257 30.8724 301.247 30.7019 301.225C30.7019 301.596 30.7019 301.782 30.7019 302.152C30.5151 302.112 30.4217 302.092 30.2363 302.047V299.897H30.7073C30.7073 300.278 30.7073 300.468 30.7073 300.853L31.1336 300.888C31.1349 300.49 31.1349 300.292 31.1363 299.897Z" fill="white"/>
<path d="M32.32 299.897H32.768C33.0481 299.897 33.1889 300.045 33.1875 300.342C33.1875 301.012 33.1875 301.348 33.1875 302.018C33.1875 302.317 33.0454 302.461 32.7626 302.44C32.5826 302.426 32.4919 302.418 32.3133 302.4C32.2531 302.4 32.1936 302.388 32.1386 302.363C32.0837 302.338 32.0345 302.302 31.9945 302.257C31.9545 302.211 31.9244 302.158 31.9063 302.1C31.8883 302.042 31.8826 301.981 31.8897 301.921L31.8964 300.322C31.8964 300.039 32.0376 299.897 32.32 299.897ZM32.7044 301.917C32.7044 301.317 32.7044 301.016 32.7044 300.416C32.7044 300.35 32.676 300.316 32.6178 300.315L32.4662 300.307C32.4053 300.307 32.3755 300.34 32.3755 300.405C32.3755 300.997 32.3755 301.293 32.3755 301.887C32.3736 301.9 32.3745 301.914 32.3781 301.926C32.3818 301.939 32.3881 301.951 32.3967 301.961C32.4053 301.971 32.416 301.979 32.428 301.985C32.44 301.99 32.453 301.993 32.4662 301.993L32.6259 302.006C32.6746 302.015 32.7044 301.984 32.7044 301.917V301.917Z" fill="white"/>
<path d="M34.2896 299.898H34.7674C34.7674 300.746 34.7674 301.169 34.7674 302.018C34.7674 302.317 34.6253 302.475 34.3411 302.482C34.1611 302.482 34.0704 302.482 33.8904 302.482C33.6076 302.482 33.4655 302.324 33.4668 302.024C33.4668 301.172 33.4668 300.746 33.4668 299.894H33.9554V301.958C33.9554 302.025 33.9838 302.059 34.0433 302.059H34.2044C34.2653 302.059 34.295 302.024 34.295 301.957C34.2896 301.133 34.2896 300.716 34.2896 299.898Z" fill="white"/>
<path d="M35.8115 301.872V301.423C35.8142 301.398 35.8069 301.372 35.7912 301.352C35.7813 301.344 35.7699 301.339 35.7578 301.336C35.7456 301.333 35.7331 301.333 35.7208 301.336L35.4258 301.353C35.1552 301.367 35.0293 301.217 35.0293 300.921C35.0293 300.689 35.0293 300.572 35.0293 300.34C35.0293 300.045 35.1646 299.897 35.4488 299.897H35.8548C36.1363 299.897 36.2775 300.037 36.2784 300.316C36.2784 300.442 36.2784 300.505 36.2784 300.632L35.8007 300.651C35.8007 300.552 35.8007 300.503 35.8007 300.405C35.8007 300.34 35.7696 300.308 35.71 300.31H35.5963C35.5354 300.31 35.5057 300.344 35.5057 300.411C35.5057 300.587 35.5057 300.675 35.5057 300.853C35.504 300.879 35.5117 300.904 35.5273 300.925C35.5371 300.933 35.5484 300.939 35.5605 300.942C35.5726 300.945 35.5853 300.946 35.5977 300.944L35.8846 300.93C35.9392 300.922 35.9951 300.925 36.0484 300.94C36.1016 300.955 36.151 300.982 36.1932 301.018C36.2619 301.103 36.2958 301.212 36.2879 301.322C36.2879 301.55 36.2879 301.665 36.2879 301.892C36.2943 301.952 36.2883 302.013 36.2702 302.07C36.2521 302.127 36.2224 302.18 36.1829 302.225C36.1434 302.27 36.0951 302.307 36.0409 302.332C35.9868 302.357 35.928 302.37 35.8684 302.371C35.706 302.391 35.6248 302.399 35.4624 302.415C35.1782 302.441 35.0361 302.3 35.0347 302.006C35.0347 301.869 35.0347 301.809 35.0347 301.677C35.2269 301.667 35.323 301.662 35.5151 301.65V301.898C35.5151 301.965 35.5463 301.995 35.6058 301.989L35.7208 301.98C35.7342 301.98 35.7474 301.977 35.7594 301.971C35.7715 301.966 35.7823 301.957 35.7909 301.947C35.7995 301.937 35.8058 301.925 35.8094 301.912C35.813 301.899 35.8137 301.885 35.8115 301.872V301.872Z" fill="white"/>
<path d="M37.0261 301.809C37.2968 301.765 37.4321 301.739 37.7028 301.686V302.039C37.2454 302.15 37.0153 302.196 36.5524 302.273C36.5524 301.317 36.5524 300.847 36.543 299.896H37.6771V300.25C37.4145 300.261 37.2846 300.265 37.0221 300.273V300.833C37.244 300.815 37.355 300.804 37.5769 300.784C37.5769 300.927 37.5769 300.999 37.5769 301.143C37.355 301.171 37.244 301.185 37.0207 301.211C37.0248 301.452 37.0248 301.573 37.0261 301.809Z" fill="white"/>
</g>
<path opacity="0.2" d="M1115.77 193.862L1144.21 183.453C1145.27 183.06 1146.14 182.261 1146.62 181.229C1147.1 180.198 1147.15 179.018 1146.76 177.948V177.948C1146.35 176.891 1145.55 176.034 1144.53 175.557C1143.5 175.079 1142.33 175.018 1141.26 175.386L1112.82 185.854C1111.76 186.265 1110.91 187.069 1110.43 188.098C1109.96 189.127 1109.9 190.301 1110.26 191.373V191.373C1110.67 192.434 1111.47 193.291 1112.5 193.758C1113.54 194.224 1114.71 194.262 1115.77 193.862V193.862Z" fill="#454545"/>
<path opacity="0.2" d="M1002.21 209.919H1034.25C1035.37 209.919 1036.44 209.475 1037.23 208.684C1038.02 207.893 1038.46 206.821 1038.46 205.703C1038.46 204.584 1038.02 203.512 1037.23 202.721C1036.44 201.931 1035.37 201.486 1034.25 201.486H1002.21C1001.09 201.486 1000.02 201.931 999.232 202.721C998.443 203.512 998 204.584 998 205.703C998 206.821 998.443 207.893 999.232 208.684C1000.02 209.475 1001.09 209.919 1002.21 209.919V209.919Z" fill="#454545"/>
<path d="M1141.95 233.508C1142.65 233.511 1143.33 233.299 1143.91 232.899C1144.48 232.5 1144.92 231.933 1145.17 231.275C1145.41 230.617 1145.45 229.899 1145.27 229.22C1145.09 228.541 1144.71 227.932 1144.18 227.476L1113.9 201.358V139.182C1113.93 138.713 1113.87 138.242 1113.71 137.798C1113.55 137.355 1113.3 136.949 1112.98 136.606C1112.66 136.262 1112.27 135.989 1111.84 135.801C1111.41 135.614 1110.95 135.518 1110.48 135.518C1110.01 135.518 1109.54 135.614 1109.11 135.801C1108.68 135.989 1108.29 136.262 1107.97 136.606C1107.65 136.949 1107.4 137.355 1107.24 137.798C1107.09 138.242 1107.02 138.713 1107.05 139.182V202.925C1107.05 203.419 1107.15 203.909 1107.35 204.359C1107.56 204.809 1107.86 205.209 1108.23 205.531L1139.7 232.703C1140.32 233.235 1141.12 233.521 1141.95 233.508V233.508Z" fill="#454545"/>
<path d="M993.733 353.16H1146.06C1147.58 353.16 1149.03 352.557 1150.1 351.484C1151.17 350.41 1151.78 348.954 1151.78 347.436V347.436C1151.78 345.918 1151.17 344.462 1150.1 343.389C1149.03 342.315 1147.58 341.712 1146.06 341.712H993.733C992.218 341.712 990.765 342.315 989.694 343.389C988.623 344.462 988.021 345.918 988.021 347.436V347.436C988.021 348.954 988.623 350.41 989.694 351.484C990.765 352.557 992.218 353.16 993.733 353.16V353.16Z" fill="#7D7D7D"/>
<path d="M1110.45 308.392H1121.31L1161.3 184.625H1150.45L1110.45 308.392Z" fill="#7D7D7D"/>
<path d="M1069.89 336.969H1059.04L1019.05 213.202H1029.9L1069.89 336.969Z" fill="#7D7D7D"/>
<path d="M1142.56 193.862L1171 183.453C1172.06 183.06 1172.93 182.261 1173.41 181.229C1173.89 180.198 1173.94 179.018 1173.55 177.948V177.948C1173.14 176.891 1172.34 176.034 1171.31 175.557C1170.29 175.079 1169.12 175.018 1168.05 175.386L1139.61 185.854C1138.55 186.265 1137.7 187.069 1137.22 188.098C1136.75 189.127 1136.68 190.301 1137.05 191.373V191.373C1137.45 192.434 1138.26 193.291 1139.29 193.758C1140.32 194.224 1141.5 194.262 1142.56 193.862V193.862Z" fill="#454545"/>
<path d="M1008.22 213.202H1040.27C1041.38 213.202 1042.45 212.758 1043.24 211.967C1044.03 211.177 1044.48 210.104 1044.48 208.986C1044.48 207.868 1044.03 206.795 1043.24 206.004C1042.45 205.214 1041.38 204.77 1040.27 204.77H1008.22C1007.11 204.77 1006.04 205.214 1005.25 206.004C1004.46 206.795 1004.02 207.868 1004.02 208.986V208.986C1004.02 210.104 1004.46 211.177 1005.25 211.967C1006.04 212.758 1007.11 213.202 1008.22 213.202V213.202Z" fill="#454545"/>
<path d="M1038.36 341.711H1101.44C1109.24 341.711 1116.71 338.608 1122.22 333.084C1127.73 327.56 1130.83 320.068 1130.83 312.256V312.256C1130.84 305.055 1128.22 298.1 1123.46 292.705C1118.7 287.31 1112.14 283.849 1105 282.976L1041.9 275.261C1037.77 274.757 1033.58 275.138 1029.61 276.38C1025.63 277.622 1021.97 279.695 1018.85 282.464C1015.74 285.232 1013.25 288.631 1011.54 292.437C1009.84 296.243 1008.96 300.369 1008.97 304.541V312.256C1008.97 320.068 1012.06 327.56 1017.57 333.084C1023.09 338.608 1030.56 341.711 1038.36 341.711V341.711Z" fill="#636363"/>
<path d="M1038.36 334.333H1101.44C1108.61 334.347 1115.53 331.735 1120.91 326.99C1126.29 322.245 1129.76 315.693 1130.66 308.567C1129.84 302.062 1126.88 296.017 1122.25 291.389C1117.61 286.761 1111.57 283.816 1105.08 283.02L1041.98 275.304C1037.85 274.801 1033.66 275.182 1029.68 276.424C1025.71 277.666 1022.04 279.739 1018.93 282.508C1015.82 285.276 1013.32 288.675 1011.62 292.481C1009.91 296.287 1009.04 300.413 1009.04 304.584V304.921C1009.05 312.713 1012.14 320.183 1017.64 325.695C1023.13 331.208 1030.58 334.314 1038.36 334.333Z" fill="#636363"/>
<path d="M1049.81 334.012C1063.92 334.012 1075.37 322.541 1075.37 308.391C1075.37 294.242 1063.92 282.771 1049.81 282.771C1035.69 282.771 1024.25 294.242 1024.25 308.391C1024.25 322.541 1035.69 334.012 1049.81 334.012Z" fill="#575757"/>
<path d="M1046.67 312.315H1052.14L1062.66 268.424H1057.17L1046.67 312.315Z" fill="#424242"/>
<path d="M1052.04 268.424H1068.18V264.515H1052.04V268.424Z" fill="#424242"/>
<path d="M1179.73 352.87C1192.54 350.796 1201.25 338.704 1199.19 325.861C1197.12 313.018 1185.05 304.287 1172.24 306.36C1159.42 308.434 1150.71 320.526 1152.78 333.369C1154.85 346.212 1166.92 354.943 1179.73 352.87Z" fill="#3D3D3D"/>
<path d="M1175.98 348.124C1186.18 348.124 1194.46 339.833 1194.46 329.605C1194.46 319.376 1186.18 311.085 1175.98 311.085C1165.77 311.085 1157.5 319.376 1157.5 329.605C1157.5 339.833 1165.77 348.124 1175.98 348.124Z" fill="#2E2E2E"/>
<path d="M1175.98 346.309C1185.18 346.309 1192.64 338.83 1192.64 329.605C1192.64 320.379 1185.18 312.9 1175.98 312.9C1166.77 312.9 1159.31 320.379 1159.31 329.605C1159.31 338.83 1166.77 346.309 1175.98 346.309Z" fill="#383838"/>
<path d="M1175.23 328.535H1176.72V314.144H1175.23V328.535Z" fill="#595959"/>
<path d="M1177.04 328.858V330.352H1191.4V328.858H1177.04Z" fill="#595959"/>
<path d="M1176.72 330.658H1175.23V345.049H1176.72V330.658Z" fill="#595959"/>
<path d="M1174.93 330.336V328.843H1160.57V330.336H1174.93Z" fill="#595959"/>
<path d="M1175.98 337.598C1180.38 337.598 1183.95 334.019 1183.95 329.605C1183.95 325.19 1180.38 321.611 1175.98 321.611C1171.57 321.611 1168 325.19 1168 329.605C1168 334.019 1171.57 337.598 1175.98 337.598Z" fill="#2E2E2E"/>
<path d="M1170.34 329.604C1170.34 330.725 1170.67 331.82 1171.29 332.752C1171.91 333.684 1172.8 334.41 1173.83 334.839C1174.86 335.267 1176 335.38 1177.1 335.161C1178.19 334.942 1179.2 334.403 1179.99 333.61C1180.78 332.818 1181.32 331.809 1181.54 330.709C1181.75 329.61 1181.64 328.471 1181.22 327.436C1180.79 326.401 1180.06 325.516 1179.13 324.893C1178.2 324.271 1177.11 323.938 1175.99 323.938C1175.25 323.937 1174.51 324.082 1173.83 324.366C1173.14 324.65 1172.52 325.067 1171.99 325.594C1171.47 326.12 1171.05 326.745 1170.77 327.434C1170.48 328.122 1170.34 328.86 1170.34 329.604V329.604Z" fill="#262626"/>
<path d="M1139.13 353.16C1157.45 353.16 1172.31 338.268 1172.31 319.898C1172.31 301.528 1157.45 286.636 1139.13 286.636C1120.8 286.636 1105.94 301.528 1105.94 319.898C1105.94 338.268 1120.8 353.16 1139.13 353.16Z" fill="#3D3D3D"/>
<path d="M1157.57 338.385C1167.76 328.174 1167.76 311.619 1157.57 301.408C1147.38 291.197 1130.87 291.197 1120.68 301.408C1110.49 311.619 1110.49 328.174 1120.68 338.385C1130.87 348.596 1147.38 348.596 1157.57 338.385Z" fill="#2E2E2E"/>
<path d="M1155.76 336.574C1164.95 327.363 1164.95 312.43 1155.76 303.219C1146.58 294.009 1131.68 294.009 1122.49 303.219C1113.3 312.43 1113.3 327.363 1122.49 336.574C1131.68 345.784 1146.58 345.784 1155.76 336.574Z" fill="#383838"/>
<path d="M1138.09 318.405H1140.19V298.085H1138.09V318.405Z" fill="#595959"/>
<path d="M1140.62 318.844V320.952H1160.89V318.844H1140.62Z" fill="#595959"/>
<path d="M1140.18 321.392H1138.07V341.712H1140.18V321.392Z" fill="#595959"/>
<path d="M1137.64 320.952V318.844H1117.36V320.952H1137.64Z" fill="#595959"/>
<path d="M1149.57 324.216C1151.94 318.444 1149.2 311.838 1143.44 309.461C1137.68 307.083 1131.09 309.834 1128.72 315.606C1126.35 321.377 1129.09 327.983 1134.85 330.361C1140.61 332.738 1147.2 329.987 1149.57 324.216Z" fill="#2E2E2E"/>
<path d="M1131.17 319.899C1131.16 321.48 1131.63 323.027 1132.5 324.344C1133.38 325.66 1134.62 326.687 1136.08 327.294C1137.54 327.901 1139.14 328.062 1140.69 327.755C1142.24 327.448 1143.66 326.688 1144.78 325.571C1145.89 324.453 1146.65 323.029 1146.96 321.478C1147.27 319.927 1147.11 318.319 1146.51 316.858C1145.91 315.396 1144.89 314.147 1143.57 313.268C1142.26 312.389 1140.72 311.92 1139.14 311.92C1137.03 311.92 1135 312.76 1133.51 314.256C1132.01 315.752 1131.17 317.781 1131.17 319.899V319.899Z" fill="#262626"/>
<path d="M1105.57 353.161C1125 353.161 1140.75 337.377 1140.75 317.907C1140.75 298.438 1125 282.654 1105.57 282.654C1086.15 282.654 1070.4 298.438 1070.4 317.907C1070.4 337.377 1086.15 353.161 1105.57 353.161Z" fill="#3D3D3D"/>
<path d="M1108.17 345.514C1123.37 344.077 1134.53 330.558 1133.1 315.32C1131.66 300.082 1118.18 288.895 1102.97 290.332C1087.77 291.77 1076.61 305.288 1078.04 320.527C1079.48 335.765 1092.96 346.952 1108.17 345.514Z" fill="#2E2E2E"/>
<path d="M1105.57 342.913C1119.35 342.913 1130.52 331.717 1130.52 317.907C1130.52 304.098 1119.35 292.902 1105.57 292.902C1091.8 292.902 1080.63 304.098 1080.63 317.907C1080.63 331.717 1091.8 342.913 1105.57 342.913Z" fill="#383838"/>
<path d="M1130.52 317.907C1130.53 323.037 1128.96 328.045 1126.01 332.239C1123.07 328.037 1121.5 323.03 1121.5 317.899C1121.5 312.768 1123.07 307.762 1126.01 303.56C1128.95 307.761 1130.53 312.772 1130.52 317.907V317.907Z" fill="#606060"/>
<path d="M1089.68 317.907C1089.69 323.039 1088.11 328.046 1085.16 332.239C1082.22 328.037 1080.64 323.03 1080.64 317.899C1080.64 312.768 1082.22 307.762 1085.16 303.56C1088.11 307.759 1089.69 312.771 1089.68 317.907V317.907Z" fill="#606060"/>
<path d="M1093.64 317.907C1093.64 320.276 1094.34 322.591 1095.65 324.56C1096.97 326.53 1098.83 328.065 1101.02 328.971C1103.2 329.878 1105.6 330.115 1107.92 329.653C1110.24 329.191 1112.37 328.05 1114.04 326.375C1115.71 324.7 1116.85 322.567 1117.31 320.244C1117.77 317.92 1117.53 315.513 1116.63 313.324C1115.72 311.136 1114.19 309.266 1112.23 307.95C1110.26 306.634 1107.95 305.932 1105.59 305.932C1102.42 305.932 1099.38 307.193 1097.14 309.439C1094.9 311.685 1093.64 314.731 1093.64 317.907Z" fill="#2E2E2E"/>
<path d="M1097.13 317.907C1097.13 319.584 1097.62 321.225 1098.55 322.621C1099.48 324.016 1100.8 325.105 1102.34 325.749C1103.89 326.393 1105.59 326.563 1107.23 326.237C1108.87 325.912 1110.38 325.106 1111.56 323.921C1112.75 322.736 1113.56 321.226 1113.88 319.581C1114.21 317.936 1114.04 316.231 1113.4 314.681C1112.77 313.132 1111.68 311.807 1110.29 310.875C1108.9 309.943 1107.26 309.445 1105.59 309.445C1104.48 309.443 1103.38 309.661 1102.35 310.085C1101.33 310.51 1100.4 311.133 1099.61 311.919C1098.83 312.705 1098.2 313.638 1097.78 314.666C1097.35 315.693 1097.13 316.795 1097.13 317.907V317.907Z" fill="#262626"/>
<path d="M961.642 340.336H1015.22V328.507H961.642V340.336Z" fill="#2B2B2B"/>
<path d="M961.642 334.421H1015.22V328.506H961.642V334.421Z" fill="#242424"/>
<path d="M1007.99 353.16H1014.97C1017.55 353.16 1019.64 351.063 1019.64 348.475V320.367C1019.64 317.779 1017.55 315.682 1014.97 315.682H1007.99C1005.41 315.682 1003.31 317.779 1003.31 320.367V348.475C1003.31 351.063 1005.41 353.16 1007.99 353.16Z" fill="#3D3D3D"/>
<path d="M1006.22 341.668H1016.74C1018.34 341.668 1019.64 340.364 1019.64 338.755V330.088C1019.64 328.479 1018.34 327.174 1016.74 327.174H1006.22C1004.62 327.174 1003.31 328.479 1003.31 330.088V338.755C1003.31 340.364 1004.62 341.668 1006.22 341.668Z" fill="#474747"/>
<path opacity="0.1" d="M1007.99 353.16H1012.37C1011.13 353.16 1009.94 352.666 1009.07 351.788C1008.19 350.909 1007.7 349.718 1007.7 348.475V320.366C1007.7 319.124 1008.19 317.932 1009.07 317.054C1009.94 316.175 1011.13 315.682 1012.37 315.682H1007.99C1006.75 315.682 1005.56 316.175 1004.68 317.054C1003.81 317.932 1003.31 319.124 1003.31 320.366V348.475C1003.31 349.718 1003.81 350.909 1004.68 351.788C1005.56 352.666 1006.75 353.16 1007.99 353.16V353.16Z" fill="black"/>
<path d="M959.656 315.682H952.674C950.093 315.682 948 317.779 948 320.366V348.475C948 351.063 950.093 353.16 952.674 353.16H959.656C962.237 353.16 964.33 351.063 964.33 348.475V320.366C964.33 317.779 962.237 315.682 959.656 315.682Z" fill="#3D3D3D"/>
<path d="M961.423 327.174H950.907C949.301 327.174 948 328.478 948 330.087V338.754C948 340.363 949.301 341.667 950.907 341.667H961.423C963.029 341.667 964.33 340.363 964.33 338.754V330.087C964.33 328.478 963.029 327.174 961.423 327.174Z" fill="#474747"/>
<path opacity="0.1" d="M959.669 315.682H955.287C956.527 315.682 957.716 316.175 958.592 317.054C959.469 317.932 959.961 319.124 959.961 320.366V348.475C959.961 349.718 959.469 350.909 958.592 351.788C957.716 352.666 956.527 353.16 955.287 353.16H959.669C960.909 353.16 962.098 352.666 962.974 351.788C963.851 350.909 964.343 349.718 964.343 348.475V320.366C964.343 319.124 963.851 317.932 962.974 317.054C962.098 316.175 960.909 315.682 959.669 315.682V315.682Z" fill="black"/>
<path opacity="0.2" fill-rule="evenodd" clip-rule="evenodd" d="M1096.52 209.486L1087.1 201.358V139.182C1087.13 138.713 1087.06 138.242 1086.9 137.798C1086.75 137.355 1086.5 136.949 1086.18 136.606C1085.86 136.262 1085.47 135.989 1085.04 135.801C1084.61 135.614 1084.14 135.518 1083.67 135.518C1083.2 135.518 1082.74 135.614 1082.31 135.801C1081.88 135.989 1081.49 136.262 1081.17 136.606C1080.85 136.949 1080.6 137.355 1080.44 137.798C1080.28 138.242 1080.22 138.713 1080.25 139.182V202.925C1080.24 203.419 1080.35 203.909 1080.55 204.359C1080.76 204.809 1081.06 205.209 1081.43 205.531L1086.01 209.486H1096.52Z" fill="#454545"/>
<defs>
<clipPath id="clip0">
<rect width="12" height="6" fill="white" transform="translate(28 296.486)"/>
</clipPath>
</defs>
</svg>
